# xmcd
#
# Track frame offsets: 
#        150
#        14756
#        29416
#        44134
#        56015
#        70602
#        80786
#        84892
#        97060
#        107616
#        121716
#        132291
#        144070
#        156389
#        177164
#        187122
#        202215
#
# Disc length: 2844 seconds
#
# Revision: 0
# Processed by: cddbd v1.5.2PL0 Copyright (c) Steve Scherf et al.
# Submitted via: ExactAudioCopy v0.99pb4
#
DISCID=f30b1a11
DTITLE=Тризубий Стас - Я повертаюся. Vol. 2
DYEAR=2004
DGENRE=Art Song
TTITLE0=Good evening
TTITLE1=Байстрюки
TTITLE2=В цирку
TTITLE3=Дощик
TTITLE4=Клептомани
TTITLE5=Сузір'я Леонідів
TTITLE6=Коровай
TTITLE7=Гуцул-експрес
TTITLE8=Нема валюти
TTITLE9=Як ми живемо
TTITLE10=Привіз глину
TTITLE11=Рідне місто
TTITLE12=Час
TTITLE13=Про 30 копійок
TTITLE14=Голодні студенти
TTITLE15=Про Воно
TTITLE16=Душа і тіло
EXTD=
EXTT0=
EXTT1=
EXTT2=
EXTT3=
EXTT4=
EXTT5=
EXTT6=
EXTT7=
EXTT8=
EXTT9=
EXTT10=
EXTT11=
EXTT12=
EXTT13=
EXTT14=
EXTT15=
EXTT16=
PLAYORDER=
